<?xml version="1.0" encoding="UTF-8" standalone="no"?>
<svg
   height="600pt"
   viewBox="0 -6 600.00104 600"
   width="600pt"
   version="1.1"
   id="svg78"
   sodipodi:docname="FriendZone.svg"
   inkscape:version="1.1 (c68e22c387, 2021-05-23)"
   inkscape:export-filename="C:\Users\MeAndUnique\AppData\Roaming\SmiteWorks\Fantasy Grounds\extensions\FriendZone\.resources\FriendZone.png"
   inkscape:export-xdpi="4.8000002"
   inkscape:export-ydpi="4.8000002"
   xmlns:inkscape="http://www.inkscape.org/namespaces/inkscape"
   xmlns:sodipodi="http://sodipodi.sourceforge.net/DTD/sodipodi-0.dtd"
   xmlns="http://www.w3.org/2000/svg"
   xmlns:svg="http://www.w3.org/2000/svg">
  <defs
     id="defs82" />
  <sodipodi:namedview
     id="namedview80"
     pagecolor="#505050"
     bordercolor="#ffffff"
     borderopacity="1"
     inkscape:pageshadow="0"
     inkscape:pageopacity="0"
     inkscape:pagecheckerboard="1"
     inkscape:document-units="pt"
     showgrid="false"
     inkscape:zoom="0.45254834"
     inkscape:cx="164.6233"
     inkscape:cy="467.35339"
     inkscape:window-width="1920"
     inkscape:window-height="1017"
     inkscape:window-x="-8"
     inkscape:window-y="-8"
     inkscape:window-maximized="1"
     inkscape:current-layer="layer2"
     lock-margins="false"
     fit-margin-top="0"
     fit-margin-left="0"
     fit-margin-right="0"
     fit-margin-bottom="0" />
  <g
     inkscape:groupmode="layer"
     id="layer3"
     inkscape:label="BG"
     style="display:inline"
     transform="translate(43.544159,53.321575)">
    <circle
       style="opacity:0.93;fill:#232323;fill-opacity:1;stroke-width:0.88379;stroke-linecap:round;stroke-linejoin:round"
       id="path1085"
       cx="256.45636"
       cy="240.67842"
       r="300.00052" />
  </g>
  <g
     inkscape:groupmode="layer"
     id="layer1"
     inkscape:label="Paw"
     style="display:inline"
     transform="translate(43.544159,53.321575)">
    <g
       id="g991"
       transform="matrix(0.99866539,0,0,0.99866539,1.0269619,-26.717953)">
      <g
         id="g909">
	<path
   style="fill:#787880"
   d="m 406.906,413.073 c -6.28,47.999 -56.649,77.478 -103.257,64.428 -13.87,-3.88 -30.299,-6.13 -47.899,-6.13 -17.31,0 -33.469,2.17 -47.189,5.93 -49.677,13.622 -103.847,-20.325 -103.847,-74.858 0,-22.389 9.73,-42.499 25.199,-56.349 0,0 32.369,-28.169 56.169,-82.798 11.37,-27.359 38.349,-46.599 69.818,-46.599 31.479,0 58.458,19.23 69.828,46.589 19.049,43.719 43.569,70.478 52.609,79.438 20.64,16.037 32.273,41.844 28.569,70.349 z"
   id="path899" />

	<path
   style="fill:#787880"
   d="m 108.764,214.588 c 17.17,33.239 11.12,70.508 -13.52,83.238 -24.639,12.73 -58.539,-3.9 -75.718,-37.139 -17.17,-33.239 -11.12,-70.508 13.52,-83.238 24.639,-12.74 58.538,3.89 75.718,37.139 z"
   id="path901" />

	<path
   style="fill:#787880"
   d="m 344.088,31.813 c 26.149,3.09 44.349,38.689 39.729,77.748 -4.3,36.261 -29.395,69.843 -56.789,66.308 -26.149,-3.08 -44.339,-38.689 -39.719,-77.748 4.208,-35.561 28.97,-69.897 56.779,-66.308 z"
   id="path903" />

	<path
   style="fill:#787880"
   d="m 224.401,97.921 c 2.38,20.039 -1.18,40.099 -9.74,55.059 -7.398,12.922 -19.03,22.929 -33.709,22.929 -24.909,0 -48.709,-29.859 -53.039,-66.538 -2.37,-20.019 1.18,-40.099 9.74,-55.059 7.311,-12.771 18.867,-22.909 33.699,-22.909 24.91,0 48.719,29.839 53.049,66.518 z"
   id="path905" />

	<path
   style="fill:#787880"
   d="m 478.455,177.479 c 24.639,12.74 30.689,50.009 13.52,83.248 -17.18,33.239 -51.079,49.869 -75.718,37.139 -24.639,-12.73 -30.689,-49.999 -13.52,-83.238 17.179,-33.249 51.078,-49.879 75.718,-37.149 z"
   id="path907" />

</g>
      <g
         id="g925">
	<path
   style="fill:#020202"
   d="m 295.999,301.376 c 5.52,0 10,-4.48 10,-10 0,-5.52 -4.48,-10 -10,-10 -5.52,0 -10,4.48 -10,10 0,5.52 4.48,10 10,10 z"
   id="path911" />

	<path
   style="fill:#020202"
   d="m 177.132,259.377 c -22.5,51.606 -53.238,78.916 -53.533,79.174 -0.036,0.031 -0.071,0.063 -0.106,0.094 -18.131,16.233 -28.528,39.487 -28.528,63.799 0,29.721 14.153,55.568 38.705,71.945 22.876,15.262 51.229,19.838 77.784,12.557 13.308,-3.646 28.711,-5.574 44.547,-5.574 16.103,0 31.734,1.992 45.203,5.76 25.775,7.215 54.066,3.259 77.421,-12.172 24.834,-16.409 39.232,-42.5 39.232,-72.516 0,-26.399 -11.886,-50.865 -32.637,-67.226 -9.374,-9.369 -32.107,-34.727 -50.041,-75.851 -13.336,-31.998 -44.347,-52.669 -79.028,-52.669 -34.674,0 -65.68,20.675 -79.019,52.679 z m 139.613,7.748 c 0.021,0.052 0.044,0.104 0.066,0.156 19.586,44.95 44.804,72.7 54.736,82.546 0.286,0.282 0.588,0.548 0.904,0.794 16.146,12.545 25.405,31.434 25.405,51.823 0,23.266 -11.132,43.193 -30.258,55.83 -18.023,11.908 -40.258,15.406 -61.005,9.599 -15.201,-4.253 -32.695,-6.5 -50.594,-6.5 -17.596,0 -34.827,2.174 -49.834,6.286 -20.966,5.749 -43.344,2.138 -61.398,-9.906 -18.85,-12.575 -29.804,-32.234 -29.804,-55.309 0,-18.614 7.956,-36.421 21.829,-48.863 2.134,-1.871 34.586,-30.925 58.707,-86.29 0.022,-0.052 0.045,-0.104 0.066,-0.156 10.208,-24.564 33.988,-40.436 60.584,-40.436 26.606,-0.001 50.39,15.867 60.596,40.426 z"
   id="path913" />

	<path
   style="fill:#020202"
   d="m 306.48,332.101 c 15.217,23.363 29.645,38.923 36.893,46.119 3.918,3.89 10.25,3.869 14.143,-0.051 3.891,-3.919 3.868,-10.251 -0.051,-14.143 -6.684,-6.636 -20.017,-21.025 -34.225,-42.84 -3.014,-4.627 -9.208,-5.938 -13.837,-2.923 -4.629,3.016 -5.937,9.211 -2.923,13.838 z"
   id="path915" />

	<path
   style="fill:#020202"
   d="m 166.697,21.683 c -14.966,1.771 -28.272,11.595 -37.473,27.662 -9.603,16.782 -13.609,39.089 -10.991,61.198 8.291,70.245 73.684,102.728 105.357,47.401 9.609,-16.795 13.615,-39.102 10.991,-61.195 C 229.505,53.736 199.84,17.703 166.697,21.683 Z m 39.537,126.328 c -23.047,40.264 -62.693,6.318 -68.139,-39.815 -2.125,-17.947 0.97,-35.776 8.488,-48.915 5.474,-9.563 14.013,-17.879 25.02,-17.879 19.682,0 39.427,26.419 43.119,57.699 2.129,17.933 -0.965,35.76 -8.488,48.91 z"
   id="path917" />

	<path
   style="fill:#020202"
   d="m 78.357,169.795 c -17.219,-8.446 -34.853,-8.882 -49.653,-1.229 -14.8,7.647 -24.642,22.28 -27.716,41.207 -2.895,17.824 0.623,37.534 9.905,55.505 9.287,17.968 23.329,32.242 39.542,40.194 16.09,7.892 33.916,9.367 49.65,1.238 14.802,-7.647 24.645,-22.282 27.718,-41.21 2.895,-17.823 -0.623,-37.534 -9.905,-55.503 -9.286,-17.972 -23.329,-32.25 -39.541,-40.202 z m 29.705,92.5 c -2.032,12.518 -8.126,21.98 -17.157,26.646 -9.03,4.668 -20.274,4.161 -31.663,-1.425 -12.39,-6.077 -23.25,-17.237 -30.581,-31.42 C 21.334,241.911 18.516,226.6 20.728,212.979 22.761,200.461 28.855,191 37.886,186.334 c 10e-4,-0.001 0.002,-0.001 0.003,-0.002 9.986,-5.163 21.552,-3.539 31.66,1.419 12.389,6.077 23.249,17.238 30.58,31.426 7.327,14.185 10.145,29.498 7.933,43.118 z"
   id="path919" />

	<path
   style="fill:#020202"
   d="m 340.618,21.593 c -30.32,0 -57.99,33.099 -62.989,75.353 -5.332,45.096 17.416,89.143 53.37,89.143 30.315,0 57.988,-33.098 62.999,-75.353 5.325,-45.014 -17.355,-89.143 -53.38,-89.143 z m 33.519,86.79 c -3.843,32.404 -25.321,60.197 -45.577,57.569 -0.037,-0.004 -0.074,-0.009 -0.111,-0.014 -9.093,-1.07 -17.718,-8.36 -23.662,-19.999 -6.612,-12.943 -9.271,-29.943 -7.297,-46.643 3.702,-31.278 23.452,-57.704 43.129,-57.704 0.926,0 1.724,0.045 2.439,0.138 10.663,1.185 18.917,10.504 23.779,20.019 6.614,12.941 9.274,29.939 7.3,46.634 z"
   id="path921" />

	<path
   style="fill:#020202"
   d="m 384.198,265.541 c 6.399,39.407 41.956,57.344 77.368,39.972 33.539,-16.451 55.437,-58.816 49.447,-95.7 -6.324,-38.946 -41.53,-57.564 -77.369,-39.978 -33.529,16.448 -55.437,58.818 -49.446,95.706 z m 58.255,-77.752 c 23.53,-11.543 44.613,-0.675 48.82,25.229 4.564,28.104 -12.792,61.921 -38.514,74.538 -11.388,5.585 -22.632,6.09 -31.663,1.425 v 0.001 c -9.031,-4.667 -15.125,-14.131 -17.157,-26.647 -4.572,-28.156 12.837,-61.948 38.514,-74.546 z"
   id="path923" />

</g>
      <g
         id="g927">
</g>
      <g
         id="g929">
</g>
      <g
         id="g931">
</g>
      <g
         id="g933">
</g>
      <g
         id="g935">
</g>
      <g
         id="g937">
</g>
      <g
         id="g939">
</g>
      <g
         id="g941">
</g>
      <g
         id="g943">
</g>
      <g
         id="g945">
</g>
      <g
         id="g947">
</g>
      <g
         id="g949">
</g>
      <g
         id="g951">
</g>
      <g
         id="g953">
</g>
      <g
         id="g955">
</g>
    </g>
  </g>
  <g
     inkscape:groupmode="layer"
     id="layer2"
     inkscape:label="Hands"
     transform="translate(43.544159,53.321575)">
    <path
       d="m 301.04011,368.12984 -88.81812,-88.81813 c -5.56726,-5.56726 -5.5734,-14.57258 -0.0184,-20.12756 2.19679,-2.19679 4.94048,-3.52716 7.79478,-3.97573 4.34751,-0.70359 8.97153,0.62677 12.33585,3.9911 l -22.87125,-22.86818 c -2.78056,-2.78363 -4.17852,-6.42448 -4.17545,-10.06225 0,-0.75582 0.0615,-1.51778 0.18128,-2.27667 0.45779,-2.85737 1.78201,-5.59492 3.97881,-7.79171 2.17529,-2.17529 4.86982,-3.49337 7.68417,-3.96038 3.83441,-0.63907 7.8716,0.29495 11.09152,2.80514 l -8.70423,-8.70423 c -2.78056,-2.78056 -4.17852,-6.43676 -4.17852,-10.07453 -0.003,-0.77118 0.0615,-1.55158 0.19049,-2.31355 0.45472,-2.83586 1.77895,-5.56112 3.96652,-7.74869 2.1968,-2.1968 4.93742,-3.52409 7.804,-3.97574 4.34751,-0.70052 8.97153,0.62985 12.33585,3.99417 l 9.967,9.967 c -3.36125,-3.36125 -4.69469,-7.98835 -3.99417,-12.33585 0.45165,-2.8543 1.7728,-5.59184 3.97574,-7.79478 5.5519,-5.54883 14.56644,-5.54576 20.13063,0.0184 l 57.71887,57.72195 0.16284,-0.23044 c 2.92497,-2.92496 6.37225,-5.005 10.04996,-6.24627 9.07906,-3.05708 19.52229,-0.96782 26.76403,6.27393 l 26.91458,26.91458 c 5.17399,5.17399 8.07438,12.18223 8.08667,19.48849 l 0.0154,16.83698 c 0.006,7.86852 3.13696,15.41751 8.71037,20.99091 l 6.00355,6.00048 -68.64755,68.64448 -7.66881,-7.66882 c -5.10025,-5.10025 -11.8842,-8.17269 -19.07679,-8.64277 -6.68256,-0.43936 -12.97184,-3.29059 -17.70955,-8.03136 z m 0,0"
       fill="#fecbaa"
       id="path2"
       style="stroke-width:0.786545;fill:#761f8f;fill-opacity:1" />
    <path
       d="m 341.03408,396.9309 77.91403,-77.91403 c 2.56856,-2.56856 6.73171,-2.56856 9.2972,0 l 27.75029,27.74721 c 2.56549,2.56856 2.56549,6.72865 0,9.29721 l -77.9171,77.9171 c -2.56856,2.56549 -6.72865,2.56549 -9.29721,0 L 341.03408,406.2281 c -2.56856,-2.56549 -2.56856,-6.72864 0,-9.2972 z m 0,0"
       fill="#fdd559"
       id="path4"
       style="stroke-width:0.786545" />
    <path
       d="m 223.89727,368.13905 88.81812,-88.81812 c 5.56726,-5.56726 5.57034,-14.57259 0.0154,-20.12756 -2.19679,-2.19987 -4.94048,-3.52716 -7.79171,-3.97881 -4.35057,-0.70052 -8.97153,0.62985 -12.33892,3.99417 l 22.87125,-22.87125 c 2.78056,-2.78056 4.17852,-6.42447 4.17545,-10.06224 0,-0.75582 -0.0584,-1.51779 -0.18128,-2.27361 -0.45779,-2.85737 -1.78201,-5.59491 -3.97881,-7.79171 -2.17221,-2.17529 -4.86982,-3.49336 -7.68417,-3.96037 -3.83441,-0.63907 -7.8716,0.29495 -11.09151,2.80206 l 8.70422,-8.70422 c 2.78056,-2.78056 4.17852,-6.43369 4.17852,-10.07146 0.003,-0.77426 -0.0614,-1.55159 -0.19049,-2.31355 -0.45472,-2.83586 -1.77894,-5.56419 -3.96652,-7.7487 -2.1968,-2.19679 -4.93741,-3.52716 -7.80093,-3.97574 -4.35058,-0.70051 -8.97153,0.62678 -12.33892,3.99111 l -9.967,9.96699 c 3.36125,-3.35817 4.69469,-7.98527 3.99417,-12.33585 -0.44857,-2.85122 -1.7728,-5.58877 -3.97574,-7.79171 -5.5519,-5.5519 -14.56644,-5.54575 -20.12756,0.0154 l -57.72194,57.72195 -0.16284,-0.22736 c -2.92497,-2.92496 -6.37225,-5.005 -10.04996,-6.24627 -9.07599,-3.06015 -19.52229,-0.96782 -26.76403,6.27392 l -26.91155,26.91455 c -5.17399,5.17399 -8.07745,12.18222 -8.08667,19.48849 l -0.0184,16.83697 c -0.003,7.8716 -3.13388,15.41751 -8.70729,20.99092 l -6.00355,6.00048 68.64448,68.64447 7.67188,-7.66881 c 5.10025,-5.10025 11.8842,-8.17269 19.07678,-8.64278 6.67949,-0.43936 12.96877,-3.29365 17.70955,-8.03136 z m 0,0"
       fill="#fecbaa"
       id="path6"
       style="stroke-width:0.786545;fill:#1c882d;fill-opacity:1" />
    <path
       d="m 183.90331,396.94011 -77.91711,-77.9171 c -2.56856,-2.56856 -6.731715,-2.56856 -9.297195,0 l -27.75029,27.75029 c -2.565487,2.56549 -2.565487,6.72864 0,9.29721 l 77.917095,77.91402 c 2.56856,2.56856 6.72865,2.56856 9.29721,0 l 27.75029,-27.74721 c 2.56548,-2.56856 2.56548,-6.73172 0,-9.29721 z m 0,0"
       fill="#ff84a7"
       id="path8"
       style="stroke-width:0.786545" />
    <path
       d="M 319.27505,155.27728 V 280.8848 c 0,7.87467 -6.36302,14.24384 -14.22233,14.24384 -3.10624,0 -5.98511,-0.99854 -8.32324,-2.6976 -3.57018,-2.58085 -5.89909,-6.78702 -5.89909,-11.54624 v 32.34359 c 0,3.93272 -1.58845,7.49676 -4.16008,10.06839 -0.53461,0.5346 -1.1153,1.02927 -1.739,1.47784 -2.34428,1.69906 -5.21394,2.69761 -8.32017,2.69761 -3.07552,0 -5.91445,-0.97397 -8.23722,-2.63309 -3.16154,-2.25824 -5.35526,-5.77311 -5.85914,-9.82566 v 12.31127 c 0,3.93272 -1.59767,7.5029 -4.1693,10.07453 -0.54075,0.54997 -1.13988,1.05385 -1.76973,1.50243 -2.32891,1.68369 -5.18935,2.67609 -8.2833,2.67609 -3.10624,0 -5.98512,-1.00161 -8.32939,-2.70682 -3.57017,-2.58085 -5.89908,-6.78702 -5.89908,-11.54623 v -14.09636 c 0,4.74999 -2.32891,8.96845 -5.89909,11.54623 -2.33506,1.69906 -5.20779,2.69761 -8.32017,2.69761 -7.85009,0 -14.22233,-6.37839 -14.22233,-14.24384 v -81.63168 l -0.27652,0.0492 c -4.1355,0 -8.04672,-0.96782 -11.52165,-2.69146 -8.58133,-4.25533 -14.48963,-13.11932 -14.48963,-23.35977 v -38.0614 c 0,-7.31548 2.90345,-14.32372 8.06208,-19.50078 l 11.89342,-11.91493 c 5.56112,-5.57033 8.68272,-13.12239 8.68272,-21.0032 v -8.48609 h 97.07991 V 117.474 c 0,7.21409 2.62694,14.18239 7.37693,19.60217 4.4151,5.03266 6.8454,11.50015 6.8454,18.20115 z m 0,0"
       fill="#fedfc5"
       id="path10"
       style="stroke-width:0.786545" />
    <path
       d="m 312.73075,259.19337 c -2.19679,-2.19987 -4.94048,-3.52716 -7.79171,-3.97881 -4.35057,-0.70052 -8.97153,0.62985 -12.33585,3.99417 l 22.87125,-22.87125 c 2.78056,-2.78056 4.17545,-6.42447 4.17545,-10.06224 0,-0.75582 -0.0614,-1.51779 -0.18435,-2.27361 -0.45472,-2.86044 -1.77894,-5.59491 -3.97574,-7.79171 -2.17528,-2.17529 -4.87289,-3.49336 -7.68724,-3.96037 -3.83134,-0.63907 -7.86852,0.29495 -11.08844,2.80206 l 8.70422,-8.70422 c 2.78056,-2.78056 4.17545,-6.43369 4.17545,-10.07146 0.006,-0.77426 -0.0614,-1.55159 -0.19049,-2.31355 -0.45472,-2.83586 -1.77894,-5.56419 -3.96345,-7.7487 -2.1968,-2.19679 -4.94048,-3.52716 -7.804,-3.97574 -4.35058,-0.70051 -8.97153,0.62678 -12.33585,3.99111 l -9.967,9.96699 c 3.35818,-3.35817 4.69469,-7.98527 3.9911,-12.33585 -0.44857,-2.85122 -1.7728,-5.58877 -3.97574,-7.79171 -5.5519,-5.5519 -14.56644,-5.54575 -20.12756,0.0154 l -57.72194,57.72195 -0.16284,-0.22736 c -2.92497,-2.92496 -6.37225,-5.005 -10.04996,-6.24627 -4.35365,-1.46863 -9.02376,-1.73593 -13.50338,-0.83263 3.61012,5.45358 8.652,9.97621 14.80303,13.02715 1.7052,0.84492 3.45342,1.55465 5.23543,2.1292 v 71.57251 c 0,14.36059 11.67221,26.04201 26.02051,26.04201 1.72364,0 3.42577,-0.16591 5.08181,-0.49466 1.85269,3.78524 4.61174,7.11577 8.09281,9.6321 2.15993,1.57309 4.51649,2.77748 6.99595,3.61319 l 72.7001,-72.70317 c 5.57033,-5.56419 5.57648,-14.56952 0.0184,-20.12449 z m 0,0"
       fill="#ffae85"
       id="path12"
       style="stroke-width:0.786545;fill:#1c882d;fill-opacity:1" />
    <path
       d="m 331.06401,280.8848 v -50.23133 c -1.21976,0.85414 -2.38422,1.8281 -3.47493,2.91882 l -0.15977,0.22736 -57.72195,-57.72195 c -5.56112,-5.56112 -14.57873,-5.56726 -20.12756,-0.0154 -2.20294,2.20294 -3.52716,4.93741 -3.97881,7.79171 -0.70052,4.35057 0.636,8.97767 3.99417,12.33585 l -9.96699,-9.967 c -3.36433,-3.36432 -7.98528,-4.69162 -12.33585,-3.9911 -2.86352,0.44858 -5.60721,1.77894 -7.804,3.97574 -2.18451,2.1845 -3.50873,4.91283 -3.96652,7.74869 -0.12598,0.76197 -0.19357,1.5393 -0.18742,2.31355 0,3.63777 1.39488,7.2909 4.17852,10.07146 l 8.70422,8.70423 c -3.22299,-2.50711 -7.26018,-3.44114 -11.09151,-2.80207 -2.81436,0.46701 -5.51196,1.78509 -7.68725,3.96038 -2.19679,2.19679 -3.52102,4.93127 -3.97574,7.79171 -0.12289,0.75582 -0.18434,1.51778 -0.18434,2.2736 0,3.63777 1.39489,7.28169 4.17544,10.06225 l 22.87125,22.87125 c -3.36432,-3.36432 -7.98527,-4.69469 -12.33585,-3.99417 -2.85122,0.45164 -5.59491,1.77894 -7.79171,3.97573 -5.55497,5.55805 -5.54882,14.56337 0.0184,20.13064 l 59.50089,59.50089 c 1.59767,0.30417 3.23221,0.45779 4.88825,0.45779 5.51196,0 10.78427,-1.70828 15.22087,-4.92512 1.13373,-0.81727 2.20294,-1.72979 3.17998,-2.70682 4.91283,-4.90976 7.61658,-11.44792 7.61658,-18.41007 v -6.41218 c 0.80191,0.0737 1.60996,0.11061 2.42416,0.11061 14.34522,-0.003 26.01743,-11.6845 26.01743,-26.04509 z m 0,0"
       fill="#ffae85"
       id="path14"
       style="stroke-width:0.786545;fill:#761f8f;fill-opacity:1" />
    <path
       d="M 319.27505,155.27728 V 280.8848 c 0,7.87467 -6.36302,14.24384 -14.22233,14.24384 -0.212,0 -0.43936,0 -0.66979,-0.0154 -2.83894,-0.13212 -5.47202,-1.09994 -7.63502,-2.67303 -0.009,0 -0.009,-0.009 -0.0184,-0.009 -3.57018,-2.58085 -5.89909,-6.78702 -5.89909,-11.54624 v 32.34359 c 0,3.93272 -1.58845,7.49676 -4.16008,10.06839 -0.53461,0.5346 -1.1153,1.02927 -1.739,1.47784 -2.34428,1.69906 -5.21394,2.69761 -8.32017,2.69761 -3.07552,0 -5.91445,-0.97397 -8.23722,-2.63309 -3.16154,-2.25824 -5.35526,-5.77311 -5.85914,-9.82566 v 12.31127 c 0,3.93272 -1.59767,7.5029 -4.1693,10.07453 -0.54075,0.54997 -1.13988,1.05385 -1.76973,1.50243 -2.32891,1.68369 -5.18935,2.67609 -8.2833,2.67609 -3.10624,0 -5.98512,-1.00161 -8.32939,-2.70682 -3.57017,-2.58085 -5.89908,-6.78702 -5.89908,-11.54623 v -14.09636 c 0,4.74999 -2.32891,8.96845 -5.89909,11.54623 -2.33506,1.69906 -5.20779,2.69761 -8.32017,2.69761 -7.85009,0 -14.22233,-6.37839 -14.22233,-14.24384 v -81.63168 l -0.27652,0.0492 c -4.1355,0 -8.04672,-0.96782 -11.52165,-2.69146 -8.58133,-4.25533 -14.48963,-13.11932 -14.48963,-23.35977 v -38.0614 c 0,-7.31548 2.90345,-14.32372 8.06208,-19.50078 l 11.89342,-11.91493 c 3.43806,-3.44728 5.94825,-7.6473 7.35542,-12.22524 0.88179,-2.82972 1.3273,-5.81306 1.3273,-8.77796 v -8.48609 h 97.07991 v 10.84572 c 0,2.4303 0.25809,4.99579 0.9371,7.34006 1.13066,4.50727 3.3336,8.71344 6.43983,12.26211 4.37516,4.99579 6.8454,11.54624 6.8454,18.20115 z m 0,0"
       fill="#fedfc5"
       id="path16"
       style="stroke-width:0.786545;fill:#88190d;fill-opacity:1" />
    <path
       d="M 319.27505,155.27728 V 280.8848 c 0,7.87467 -6.36302,14.24384 -14.22233,14.24384 -0.212,0 -0.43936,0 -0.66979,-0.0154 -2.83894,-0.13212 -5.47202,-1.09994 -7.63502,-2.67303 l 0.24273,-121.0388 c 0,-0.73125 -0.16591,-1.88648 -0.47316,-3.35818 -5.42593,-26.43525 -27.74107,-44.15094 -54.72939,-44.15094 h -35.14258 c 0.88179,-2.82972 1.3273,-5.81306 1.3273,-8.77796 v -8.48609 h 97.07991 v 10.84572 c 0,2.4303 0.25809,4.99579 0.9371,7.34006 1.13066,4.50727 3.3336,8.71344 6.43983,12.26211 4.37516,4.99579 6.8454,11.54624 6.8454,18.20115 z m 0,0"
       fill="#fecbaa"
       id="path18"
       style="stroke-width:0.786545;fill:#88190d;fill-opacity:1" />
    <path
       d="M 311.36044,106.63132 H 201.16735 c -3.62855,0 -6.57195,-2.9434 -6.57195,-6.57503 V 60.815076 c 0,-3.631625 2.9434,-6.575024 6.57195,-6.575024 h 110.19309 c 3.62856,0 6.57195,2.943399 6.57195,6.575024 v 39.241214 c 0,3.63163 -2.94339,6.57503 -6.57195,6.57503 z m 0,0"
       fill="#83d9ff"
       id="path20"
       style="stroke-width:0.786545" />
    <path
       d="m 460.18948,342.45345 -27.69191,-27.74107 c -2.35656,-2.35964 -5.48738,-3.65928 -8.82098,-3.65928 -3.33052,0 -6.46441,1.29964 -8.8179,3.65928 l -0.64214,0.64214 -1.81889,-1.81889 c -2.24595,-2.2521 -3.98495,-4.87289 -5.16477,-7.72719 -0.10446,-0.37791 -0.24272,-0.7466 -0.42093,-1.09378 -0.90329,-2.53784 -1.34132,-5.23871 -1.37338,-8.01293 l -0.19971,-17.28095 c -0.1997,-9.43395 -3.62547,-17.26253 -9.58601,-23.23536 l -26.86542,-26.91151 c -6.02813,-6.03734 -14.04413,-9.36173 -22.57015,-9.36173 -6.59961,0 -12.88582,2.00016 -18.18885,5.70245 l -2.85123,-2.86658 v -67.4708 c 0,-8.13276 -2.95262,-15.97977 -8.31095,-22.09086 -3.8129,-4.34443 -5.91138,-9.92398 -5.91138,-15.71246 v -4.94356 h 0.40556 c 6.87613,0 12.47104,-5.59491 12.47104,-12.47411 V 60.815076 c 0,-6.879196 -5.59491,-12.47411 -12.47104,-12.47411 H 201.16735 c -6.87612,0 -12.47104,5.594914 -12.47104,12.47411 v 39.241214 c 0,6.8792 5.59492,12.47411 12.47104,12.47411 h 0.90944 v 2.587 c 0,6.35995 -2.47331,12.33892 -6.96215,16.8339 l -11.89342,11.91493 c -6.31079,6.32308 -9.78572,14.72621 -9.78572,23.66701 v 38.05833 c 0,5.17092 1.24127,10.05302 3.42577,14.37902 -7.82243,0.45165 -15.11334,3.71151 -20.69903,9.30335 l -26.86543,26.91151 c -6.31079,6.32308 -9.78572,14.72928 -9.78572,23.66701 v 16.84927 c 0,6.35995 -2.47024,12.33892 -6.95908,16.8339 l -1.79738,1.80045 c -0.009,0.006 -0.0154,0.0123 -0.0215,0.0184 l -0.63907,-0.64214 c -2.35656,-2.35964 -5.48738,-3.65928 -8.82097,-3.65928 -3.330525,0 -6.464415,1.29964 -8.817904,3.65928 l -27.69498,27.74111 c -4.854457,4.86367 -4.854457,12.77828 0,17.64195 l 9.484625,9.49692 c 2.301258,2.3074 6.037347,2.31047 8.341678,0.009 2.30433,-2.30433 2.310475,-6.03734 0.0061,-8.34474 l -9.481552,-9.49999 c -0.267303,-0.2673 -0.267303,-0.70052 0,-0.96782 L 100.80603,323.0477 c 0.25809,-0.25808 0.67901,-0.26116 0.9371,0 l 4.81451,4.82373 h 0.003 l 65.74102,65.8547 7.36464,7.38 c 0.2673,0.26731 0.2673,0.70052 0,0.96782 l -27.69191,27.74107 c -0.26116,0.26116 -0.68208,0.26116 -0.94017,0 l -51.739895,-51.829 c -2.30126,-2.30741 -6.037346,-2.31048 -8.341677,-0.009 -2.307403,2.30433 -2.310475,6.03735 -0.0092,8.34475 l 51.742972,51.829 c 2.35349,2.35964 5.48738,3.65928 8.82098,3.65928 3.33052,0 6.46134,-1.29964 8.8179,-3.65928 l 27.69191,-27.74106 c 4.85446,-4.86061 4.85446,-12.77521 0,-17.63889 l -0.3011,-0.3011 3.49337,-3.49951 c 4.0802,-4.08942 9.49999,-6.54737 15.26081,-6.91913 8.10818,-0.52539 15.73705,-3.98496 21.47944,-9.73964 l 25.43981,-25.49512 c 7.33699,-1.92642 13.04865,-7.90231 14.60024,-15.38678 2.61465,1.24434 5.53654,1.94485 8.62127,1.94485 11.09458,0 20.12141,-9.03604 20.12141,-20.14599 v -14.00726 c 2.53784,1.15831 5.35527,1.80967 8.32325,1.80967 11.09458,0 20.11834,-9.03605 20.11834,-20.146 v -41.41035 l 18.14583,18.23493 c 1.15217,1.15831 2.66688,1.73593 4.1816,1.73593 1.50549,0 3.01099,-0.57147 4.16315,-1.71749 2.30741,-2.29819 2.31662,-6.0312 0.0184,-8.34168 l -15.1287,-15.20244 c 2.92804,-1.61303 6.22784,-2.47331 9.66283,-2.47331 5.37062,0 10.42172,2.0954 14.21925,5.90216 l 26.86543,26.90843 c 4.08634,4.09557 6.33844,9.53993 6.33844,15.33148 v 16.84927 c 0,9.5092 3.69615,18.44694 10.40636,25.16944 l 1.83117,1.83424 -8.55675,8.57211 -51.75219,51.8413 -2.88502,-2.89117 c -0.0307,-0.0276 -0.0584,-0.0584 -0.0891,-0.086 l -0.50695,-0.51002 c -6.10802,-6.11723 -14.22233,-9.79494 -22.8436,-10.35413 -5.24466,-0.34104 -10.179,-2.57778 -13.91202,-6.31386 l -19.38402,-19.27957 c -2.31048,-2.29819 -6.04657,-2.28897 -8.34475,0.0215 -2.29512,2.31047 -2.2859,6.04656 0.0246,8.34167 l 19.37173,19.26421 c 5.7424,5.75468 13.37127,9.21425 21.48251,9.73964 5.75776,0.37176 11.17754,2.82971 15.25774,6.91606 l 0.28574,0.28574 c 0.15362,0.17513 0.31646,0.33797 0.48852,0.49159 l 2.71911,2.72218 -0.3011,0.30417 c -4.85446,4.86368 -4.85446,12.77521 0,17.63889 l 27.69191,27.74106 c 2.35656,2.35964 5.48738,3.65928 8.82098,3.65928 3.33052,0 6.46441,-1.29964 8.82097,-3.65928 l 77.92325,-78.05843 c 4.85446,-4.86367 4.85446,-12.77521 0,-17.63888 z M 219.59892,363.9759 c -3.71458,3.72379 -8.64892,5.96053 -13.8905,6.30157 -8.62434,0.55919 -16.73866,4.2369 -22.84667,10.35413 l -3.48108,3.48722 -3.13389,-3.14004 c -0.0399,-0.0399 -0.0799,-0.0829 -0.11982,-0.11982 l -57.05523,-57.15355 1.83117,-1.83424 c 6.71021,-6.7225 10.40636,-15.66024 10.40636,-25.16944 v -16.84927 c 0,-5.79155 2.24903,-11.23591 6.33845,-15.33148 l 26.86542,-26.90843 c 3.79754,-3.80676 8.84863,-5.90216 14.21926,-5.90216 3.4442,0 6.7563,0.86643 9.69355,2.49175 l -15.15328,15.17785 c -2.30126,2.30434 -2.29819,6.04042 0.006,8.34168 1.15217,1.14909 2.66074,1.72364 4.16931,1.72364 1.51164,0 3.02328,-0.57762 4.17544,-1.72978 l 18.09975,-18.13355 v 73.64641 c 0,11.10995 9.02683,20.14599 20.12142,20.14599 3.12774,0 6.08958,-0.71895 8.73188,-1.99708 1.19825,5.84685 4.93434,10.77505 9.99772,13.58326 z m 93.78012,-83.08802 c 0,4.60251 -3.73609,8.34782 -8.32324,8.34782 -4.59023,0 -8.32325,-3.74531 -8.32325,-8.34782 v -65.80247 c 0,-3.25679 -2.63922,-5.89909 -5.89908,-5.89909 -3.25986,0 -5.89909,2.6423 -5.89909,5.89909 v 98.14605 c 0,4.60252 -3.73302,8.34475 -8.32324,8.34475 -4.12015,0 -7.53977,-3.01714 -8.20035,-6.96522 v -99.59317 c 0,-3.25986 -2.63922,-5.89909 -5.89908,-5.89909 -1.04771,0 -2.03396,0.27652 -2.8881,0.75582 -1.86497,0.9924 -3.13389,2.95262 -3.13389,5.21086 v 98.14298 c 0,0.74967 0.043,1.48399 0.1229,2.21216 v 11.88727 c 0,4.60252 -3.73302,8.34782 -8.32324,8.34782 -4.58716,0 -8.32017,-3.7453 -8.32017,-8.34782 V 214.94715 c 0,-3.25679 -2.6423,-5.89909 -5.89909,-5.89909 -3.25986,0 -5.90216,2.6423 -5.90216,5.89909 v 98.28124 c 0,4.60252 -3.73301,8.34782 -8.32017,8.34782 -4.59023,0 -8.32324,-3.7453 -8.32324,-8.34782 V 203.49616 c 0,-3.25986 -2.6423,-5.90216 -5.89909,-5.90216 -3.25986,0 -5.89908,2.6423 -5.89908,5.90216 v 20.29655 c -0.49467,0.15976 -0.97397,0.38405 -1.41947,0.67901 -7.62887,-2.86659 -13.07324,-10.24659 -13.07324,-18.88015 v -38.05833 c 0,-5.79155 2.2521,-11.23591 6.33845,-15.33148 l 11.89342,-11.91493 c 6.71328,-6.7225 10.40943,-15.66023 10.40943,-25.16943 v -2.587 h 11.85962 c 3.25986,0 5.89908,-2.6423 5.89908,-5.89908 0,-3.25987 -2.63922,-5.89909 -5.89908,-5.89909 h -24.56724 c -0.37176,0 -0.67286,-0.30417 -0.67286,-0.67594 V 60.815076 c 0,-0.371765 0.3011,-0.675937 0.67286,-0.675937 h 110.19002 c 0.37484,0 0.67594,0.304172 0.67594,0.675937 v 39.241214 c 0,0.37484 -0.3011,0.67594 -0.67594,0.67594 h -57.9278 c -3.25679,0 -5.89909,2.63922 -5.89909,5.89909 0,3.25678 2.6423,5.89908 5.89909,5.89908 h 45.72714 v 4.94356 c 0,8.65199 3.13696,16.99367 8.83634,23.49496 3.47186,3.9573 5.38599,9.03912 5.38599,14.30836 z m 138.45955,70.86892 -77.92325,78.05843 c -0.12904,0.13212 -0.28574,0.19664 -0.47008,0.19664 -0.18128,0 -0.33797,-0.0645 -0.47009,-0.19664 l -27.69191,-27.74107 c -0.2673,-0.2673 -0.2673,-0.70051 0,-0.96782 l 4.45812,-4.46733 0.003,-0.003 45.23555,-45.31236 28.22651,-28.27567 c 0.25809,-0.26116 0.67901,-0.26116 0.93709,0 l 27.69499,27.74107 c 0.2673,0.2673 0.2673,0.70052 0,0.96782 z"
       id="path70"
       style="stroke-width:0.786545"
       sodipodi:nodetypes="ccscccccscccsccscscsssssssscsccsscccssccccscccccccccccccccccccccscccccccccsscssccscccsccsscccccccccccccccccccccsccccccccccccssccscccsccsscccsssssssscsscsscssssssssssssccssccscsssssssssssssscscssccsccccccccccc" />
  </g>
</svg>
